<svg xmlns="http://www.w3.org/2000/svg" viewBox="0 0 100 100" role="img" aria-label="Fidwastafid">
  <title>Fidwastafid</title>
  <rect width="100" height="100" rx="10.0" fill="#2F6B57"/>
  <path d="M-10.44 70.30V29.70H21.41V38.57H1.05V47.51H18.97V56.38H1.05V70.30Z" fill="#F4F1EC"/>
  <path d="M31.73 70.30 20.54 38.86H30.98L37.41 57.89L44.08 38.86H53.48L59.98 58.06L66.65 38.86H76.33L65.14 70.30H54.47L48.55 53.13L42.40 70.30Z" fill="#E0C793"/>
  <path d="M92.46 71.11Q87.47 71.11 82.83 69.89Q78.19 68.68 75.35 66.65L79.12 58.18Q81.84 59.98 85.44 61.08Q89.03 62.18 92.51 62.18Q96.05 62.18 97.59 61.25Q99.13 60.32 99.13 58.87Q99.13 57.48 97.88 56.67Q96.63 55.86 94.57 55.34Q92.51 54.81 90.05 54.29Q87.58 53.77 85.12 52.99Q82.65 52.20 80.60 50.87Q78.54 49.54 77.29 47.39Q76.04 45.24 76.04 42.05Q76.04 38.46 78.04 35.47Q80.04 32.48 84.02 30.69Q87.99 28.89 94.02 28.89Q97.97 28.89 101.85 29.79Q105.74 30.69 108.75 32.43L105.22 40.95Q102.32 39.39 99.47 38.60Q96.63 37.82 93.96 37.82Q90.37 37.82 88.89 38.89Q87.41 39.97 87.41 41.47Q87.41 42.81 88.66 43.56Q89.90 44.32 91.96 44.84Q94.02 45.36 96.49 45.88Q98.95 46.40 101.39 47.19Q103.82 47.97 105.88 49.27Q107.94 50.58 109.19 52.70Q110.44 54.81 110.44 58.00Q110.44 61.54 108.46 64.53Q106.49 67.52 102.49 69.31Q98.49 71.11 92.46 71.11Z" fill="#F4F1EC"/>
</svg>
